<svg width="14" height="14" viewBox="0 0 14 14" fill="none" xmlns="http://www.w3.org/2000/svg">
<path d="M13.944 4.6176C13.8809 4.42746 13.7649 4.25798 13.6088 4.12793C13.4527 3.99788 13.2626 3.91233 13.0596 3.88075L9.87336 3.37771L8.39632 0.589337C8.30224 0.411824 8.15964 0.262919 7.98418 0.158958C7.80871 0.0549976 7.60716 0 7.40164 0C7.19611 0 6.99456 0.0549976 6.8191 0.158958C6.64363 0.262919 6.50103 0.411824 6.40695 0.589337L4.92991 3.37771L1.74375 3.88075C1.54091 3.91283 1.35107 3.99856 1.19508 4.12855C1.03908 4.25855 0.92296 4.42777 0.859449 4.61765C0.795938 4.80754 0.787494 5.01075 0.835042 5.20499C0.88259 5.39923 0.984293 5.577 1.12899 5.71878L3.40233 7.94512L2.91027 11.0444C2.8787 11.2418 2.90378 11.4438 2.98275 11.6283C3.06172 11.8127 3.19152 11.9724 3.35788 12.0898C3.52424 12.2073 3.72071 12.2778 3.92569 12.2938C4.13067 12.3098 4.3362 12.2705 4.5197 12.1803L7.40164 10.7679L10.2837 12.1803C10.4672 12.2703 10.6727 12.3094 10.8775 12.2934C11.0824 12.2774 11.2788 12.2068 11.4451 12.0894C11.6114 11.972 11.7412 11.8124 11.8202 11.628C11.8993 11.4437 11.9245 11.2417 11.8931 11.0444L11.401 7.94512L13.6744 5.71878C13.8195 5.57727 13.9215 5.3995 13.9691 5.20515C14.0167 5.0108 14.008 4.80745 13.944 4.6176ZM13.0498 5.11698L10.4639 7.64939L11.0237 11.1747C11.0306 11.2169 11.0254 11.2602 11.0086 11.2997C10.9918 11.3392 10.964 11.3734 10.9284 11.3986C10.8928 11.4237 10.8507 11.4388 10.8069 11.4421C10.763 11.4454 10.719 11.4369 10.6798 11.4174L7.40164 9.81078L4.12342 11.4175C4.08423 11.4369 4.04026 11.4455 3.99639 11.4421C3.95251 11.4388 3.91044 11.4237 3.87483 11.3986C3.83923 11.3735 3.81148 11.3393 3.79466 11.2998C3.77785 11.2603 3.77262 11.217 3.77956 11.1748L4.33937 7.64939L1.75351 5.11695C1.72263 5.08665 1.70094 5.04867 1.6908 5.00717C1.68066 4.96568 1.68247 4.92228 1.69603 4.88172C1.7096 4.84116 1.73439 4.80502 1.7677 4.77724C1.801 4.74946 1.84154 4.73112 1.88486 4.72423L5.50902 4.15205L7.18912 0.980378C7.20921 0.942439 7.23967 0.910612 7.27716 0.888391C7.31465 0.866169 7.35772 0.854413 7.40164 0.854413C7.44555 0.854413 7.48862 0.866169 7.52611 0.888391C7.5636 0.910612 7.59406 0.942439 7.61415 0.980378L9.29425 4.15205L12.9184 4.72423C12.9617 4.73112 13.0023 4.74946 13.0356 4.77724C13.0689 4.80502 13.0937 4.84116 13.1072 4.88172C13.1208 4.92228 13.1226 4.96568 13.1125 5.00717C13.1023 5.04867 13.0807 5.08667 13.0498 5.11698Z" fill="#193D9B"/>
</svg>
