<svg width="14" height="14" viewBox="0 0 14 14" fill="none" xmlns="http://www.w3.org/2000/svg">
<path d="M13.9445 4.6176C13.8814 4.42746 13.7654 4.25798 13.6093 4.12793C13.4532 3.99788 13.2631 3.91233 13.0601 3.88075L9.87385 3.37771L8.39681 0.589337C8.30273 0.411824 8.16013 0.262919 7.98466 0.158958C7.8092 0.0549976 7.60765 0 7.40212 0C7.1966 0 6.99505 0.0549976 6.81958 0.158958C6.64412 0.262919 6.50152 0.411824 6.40744 0.589337L4.9304 3.37771L1.74424 3.88075C1.54139 3.91283 1.35156 3.99856 1.19556 4.12855C1.03957 4.25854 0.923448 4.42777 0.859937 4.61765C0.796426 4.80754 0.787982 5.01075 0.83553 5.20499C0.883078 5.39923 0.984781 5.577 1.12948 5.71878L3.40282 7.94512L2.91076 11.0444C2.87919 11.2418 2.90427 11.4438 2.98324 11.6283C3.06221 11.8127 3.19201 11.9724 3.35837 12.0898C3.52473 12.2073 3.7212 12.2778 3.92618 12.2938C4.13115 12.3098 4.33669 12.2705 4.52019 12.1803L7.40212 10.7679L10.2841 12.1803C10.4677 12.2703 10.6731 12.3094 10.878 12.2934C11.0829 12.2774 11.2793 12.2068 11.4456 12.0894C11.6119 11.972 11.7417 11.8124 11.8207 11.628C11.8998 11.4437 11.925 11.2417 11.8936 11.0444L11.4015 7.94512L13.6748 5.71878C13.82 5.57727 13.922 5.3995 13.9696 5.20515C14.0172 5.0108 14.0085 4.80745 13.9445 4.6176ZM13.0503 5.11698L10.4644 7.64939L11.0242 11.1747C11.0311 11.2169 11.0259 11.2602 11.0091 11.2997C10.9923 11.3392 10.9645 11.3734 10.9289 11.3986C10.8933 11.4237 10.8512 11.4388 10.8073 11.4421C10.7635 11.4454 10.7195 11.4369 10.6803 11.4174L7.40212 9.81078L4.1239 11.4175C4.08472 11.4369 4.04075 11.4455 3.99687 11.4421C3.953 11.4388 3.91093 11.4237 3.87532 11.3986C3.83972 11.3735 3.81197 11.3393 3.79515 11.2998C3.77834 11.2603 3.77311 11.217 3.78005 11.1748L4.33986 7.64939L1.754 5.11695C1.72312 5.08665 1.70142 5.04867 1.69129 5.00717C1.68115 4.96568 1.68296 4.92228 1.69652 4.88172C1.71009 4.84116 1.73488 4.80502 1.76819 4.77724C1.80149 4.74946 1.84202 4.73112 1.88534 4.72423L5.50951 4.15205L7.18961 0.980378C7.2097 0.942439 7.24016 0.910612 7.27765 0.888391C7.31514 0.866169 7.35821 0.854413 7.40212 0.854413C7.44604 0.854413 7.48911 0.866169 7.5266 0.888391C7.56409 0.910612 7.59455 0.942439 7.61464 0.980378L9.29474 4.15205L12.9189 4.72423C12.9622 4.73112 13.0028 4.74946 13.0361 4.77724C13.0694 4.80502 13.0942 4.84116 13.1077 4.88172C13.1213 4.92228 13.1231 4.96568 13.113 5.00717C13.1028 5.04867 13.0812 5.08667 13.0503 5.11698Z" fill="#3376B7"/>
</svg>
