<svg width="71" height="14" viewBox="0 0 71 14" fill="none" xmlns="http://www.w3.org/2000/svg">
<path d="M13.1393 4.6176C13.0762 4.42746 12.9602 4.25798 12.8041 4.12793C12.648 3.99788 12.4579 3.91233 12.2549 3.88075L9.06867 3.37771L7.59164 0.589337C7.49755 0.411824 7.35495 0.262919 7.17949 0.158958C7.00402 0.0549976 6.80247 0 6.59695 0C6.39143 0 6.18987 0.0549976 6.01441 0.158958C5.83894 0.262919 5.69635 0.411824 5.60226 0.589337L4.12523 3.37771L0.939067 3.88075C0.736218 3.91283 0.546382 3.99856 0.390388 4.12855C0.234395 4.25855 0.118272 4.42777 0.0547614 4.61765C-0.00874935 4.80754 -0.017194 5.01075 0.030354 5.20499C0.0779021 5.39923 0.179605 5.577 0.324305 5.71878L2.59764 7.94512L2.10559 11.0444C2.07401 11.2418 2.09909 11.4438 2.17806 11.6283C2.25703 11.8127 2.38683 11.9724 2.55319 12.0898C2.71955 12.2073 2.91603 12.2778 3.121 12.2938C3.32598 12.3098 3.53152 12.2705 3.71501 12.1803L6.59695 10.7679L9.47897 12.1803C9.66248 12.2703 9.86796 12.3094 10.0729 12.2934C10.2778 12.2774 10.4741 12.2068 10.6404 12.0894C10.8067 11.972 10.9365 11.8124 11.0156 11.628C11.0946 11.4437 11.1198 11.2417 11.0884 11.0444L10.5963 7.94512L12.8697 5.71878C13.0148 5.57727 13.1168 5.3995 13.1644 5.20515C13.212 5.0108 13.2033 4.80745 13.1393 4.6176ZM12.2451 5.11698L9.65921 7.64939L10.219 11.1747C10.2259 11.2169 10.2207 11.2602 10.2039 11.2997C10.1871 11.3392 10.1593 11.3734 10.1237 11.3986C10.0881 11.4237 10.046 11.4388 10.0022 11.4421C9.9583 11.4454 9.91433 11.4369 9.87514 11.4174L6.59695 9.81078L3.31873 11.4175C3.27954 11.4369 3.23557 11.4455 3.1917 11.4421C3.14782 11.4388 3.10575 11.4237 3.07015 11.3986C3.03454 11.3735 3.00679 11.3393 2.98998 11.2998C2.97316 11.2602 2.96793 11.217 2.97487 11.1748L3.53468 7.64939L0.948826 5.11695C0.917946 5.08665 0.896248 5.04867 0.886109 5.00717C0.875971 4.96568 0.877783 4.92228 0.891347 4.88172C0.904911 4.84116 0.929704 4.80502 0.963009 4.77724C0.996315 4.74946 1.03685 4.73112 1.08017 4.72423L4.70434 4.15205L6.38443 0.980378C6.40452 0.942439 6.43498 0.910612 6.47247 0.888391C6.50996 0.866169 6.55303 0.854413 6.59695 0.854413C6.64087 0.854413 6.68393 0.866169 6.72142 0.888391C6.75891 0.910612 6.78937 0.942439 6.80946 0.980378L8.48956 4.15205L12.1137 4.72423C12.157 4.73112 12.1976 4.74946 12.2309 4.77724C12.2642 4.80502 12.289 4.84116 12.3025 4.88172C12.3161 4.92228 12.3179 4.96568 12.3078 5.00717C12.2976 5.04867 12.276 5.08667 12.2451 5.11698Z" fill="#193D9B"/>
<path d="M27.5905 4.6176C27.5274 4.42746 27.4114 4.25798 27.2553 4.12793C27.0992 3.99788 26.9091 3.91233 26.7061 3.88075L23.5198 3.37771L22.0428 0.589337C21.9487 0.411824 21.8061 0.262919 21.6307 0.158958C21.4552 0.0549976 21.2536 0 21.0481 0C20.8426 0 20.641 0.0549976 20.4656 0.158958C20.2901 0.262919 20.1475 0.411824 20.0534 0.589337L18.5764 3.37771L15.3902 3.88075C15.1874 3.91283 14.9976 3.99856 14.8416 4.12855C14.6856 4.25855 14.5694 4.42777 14.5059 4.61765C14.4424 4.80754 14.434 5.01075 14.4815 5.20499C14.5291 5.39923 14.6308 5.577 14.7755 5.71878L17.0488 7.94512L16.5568 11.0444C16.5252 11.2418 16.5503 11.4438 16.6292 11.6283C16.7082 11.8127 16.838 11.9724 17.0044 12.0898C17.1707 12.2073 17.3672 12.2778 17.5722 12.2938C17.7771 12.3098 17.9827 12.2705 18.1662 12.1803L21.0481 10.7679L23.9301 12.1803C24.1137 12.2703 24.3191 12.3094 24.524 12.2934C24.7289 12.2774 24.9253 12.2068 25.0916 12.0894C25.2579 11.972 25.3877 11.8124 25.4667 11.628C25.5457 11.4437 25.571 11.2417 25.5396 11.0444L25.0475 7.94512L27.3208 5.71878C27.466 5.57727 27.568 5.3995 27.6156 5.20515C27.6632 5.0108 27.6545 4.80745 27.5905 4.6176ZM26.6963 5.11698L24.1104 7.64939L24.6702 11.1747C24.6771 11.2169 24.6719 11.2602 24.6551 11.2997C24.6382 11.3392 24.6105 11.3734 24.5749 11.3986C24.5393 11.4237 24.4972 11.4388 24.4533 11.4421C24.4095 11.4454 24.3655 11.4369 24.3263 11.4174L21.0481 9.81078L17.7699 11.4175C17.7307 11.4369 17.6867 11.4455 17.6429 11.4421C17.599 11.4388 17.5569 11.4237 17.5213 11.3986C17.4857 11.3735 17.458 11.3393 17.4411 11.2998C17.4243 11.2602 17.4191 11.217 17.426 11.1748L17.9859 7.64939L15.4 5.11695C15.3691 5.08665 15.3474 5.04867 15.3373 5.00717C15.3271 4.96568 15.329 4.92228 15.3425 4.88172C15.3561 4.84116 15.3809 4.80502 15.4142 4.77724C15.4475 4.74946 15.488 4.73112 15.5313 4.72423L19.1555 4.15205L20.8356 0.980378C20.8557 0.942439 20.8862 0.910612 20.9236 0.888391C20.9611 0.866169 21.0042 0.854413 21.0481 0.854413C21.092 0.854413 21.1351 0.866169 21.1726 0.888391C21.2101 0.910612 21.2405 0.942439 21.2606 0.980378L22.9407 4.15205L26.5649 4.72423C26.6082 4.73112 26.6488 4.74946 26.6821 4.77724C26.7154 4.80502 26.7402 4.84116 26.7537 4.88172C26.7673 4.92228 26.7691 4.96568 26.759 5.00717C26.7488 5.04867 26.7272 5.08667 26.6963 5.11698Z" fill="#193D9B"/>
<path d="M42.0417 4.6176C41.9786 4.42746 41.8626 4.25798 41.7065 4.12793C41.5504 3.99788 41.3603 3.91233 41.1572 3.88075L37.971 3.37771L36.494 0.589337C36.3999 0.411824 36.2573 0.262919 36.0818 0.158958C35.9064 0.0549976 35.7048 0 35.4993 0C35.2938 0 35.0922 0.0549976 34.9168 0.158958C34.7413 0.262919 34.5987 0.411824 34.5046 0.589337L33.0276 3.37771L29.8414 3.88075C29.6386 3.91283 29.4487 3.99856 29.2927 4.12855C29.1367 4.25855 29.0206 4.42777 28.9571 4.61765C28.8936 4.80754 28.8851 5.01075 28.9327 5.20499C28.9802 5.39923 29.0819 5.577 29.2266 5.71878L31.5 7.94512L31.0079 11.0444C30.9764 11.2418 31.0014 11.4438 31.0804 11.6283C31.1594 11.8127 31.2892 11.9724 31.4555 12.0898C31.6219 12.2073 31.8184 12.2778 32.0233 12.2938C32.2283 12.3098 32.4339 12.2705 32.6174 12.1803L35.4993 10.7679L38.3813 12.1803C38.5648 12.2703 38.7703 12.3094 38.9752 12.2934C39.1801 12.2774 39.3765 12.2068 39.5428 12.0894C39.7091 11.972 39.8389 11.8124 39.9179 11.628C39.9969 11.4437 40.0221 11.2417 39.9907 11.0444L39.4987 7.94512L41.772 5.71878C41.9172 5.57727 42.0192 5.3995 42.0668 5.20515C42.1144 5.0108 42.1057 4.80745 42.0417 4.6176ZM41.1474 5.11698L38.5616 7.64939L39.1213 11.1747C39.1283 11.2169 39.1231 11.2602 39.1062 11.2997C39.0894 11.3392 39.0617 11.3734 39.0261 11.3986C38.9905 11.4237 38.9484 11.4388 38.9045 11.4421C38.8606 11.4454 38.8167 11.4369 38.7775 11.4174L35.4993 9.81078L32.2211 11.4175C32.1819 11.4369 32.1379 11.4455 32.094 11.4421C32.0502 11.4388 32.0081 11.4237 31.9725 11.3986C31.9369 11.3735 31.9091 11.3393 31.8923 11.2998C31.8755 11.2602 31.8703 11.217 31.8772 11.1748L32.437 7.64939L29.8512 5.11695C29.8203 5.08665 29.7986 5.04867 29.7885 5.00717C29.7783 4.96568 29.7801 4.92228 29.7937 4.88172C29.8073 4.84116 29.832 4.80502 29.8654 4.77724C29.8987 4.74946 29.9392 4.73112 29.9825 4.72423L33.6067 4.15205L35.2868 0.980378C35.3069 0.942439 35.3373 0.910612 35.3748 0.888391C35.4123 0.866169 35.4554 0.854413 35.4993 0.854413C35.5432 0.854413 35.5863 0.866169 35.6238 0.888391C35.6613 0.910612 35.6917 0.942439 35.7118 0.980378L37.3919 4.15205L41.0161 4.72423C41.0594 4.73112 41.0999 4.74946 41.1332 4.77724C41.1665 4.80502 41.1913 4.84116 41.2049 4.88172C41.2185 4.92228 41.2203 4.96568 41.2101 5.00717C41.2 5.04867 41.1783 5.08667 41.1474 5.11698Z" fill="#193D9B"/>
<path d="M56.4928 4.6176C56.4297 4.42746 56.3137 4.25798 56.1576 4.12793C56.0015 3.99788 55.8114 3.91233 55.6084 3.88075L52.4222 3.37771L50.9452 0.589337C50.8511 0.411824 50.7085 0.262919 50.533 0.158958C50.3575 0.0549976 50.156 0 49.9505 0C49.7449 0 49.5434 0.0549976 49.3679 0.158958C49.1925 0.262919 49.0499 0.411824 48.9558 0.589337L47.4787 3.37771L44.2926 3.88075C44.0897 3.91283 43.8999 3.99856 43.7439 4.12855C43.5879 4.25855 43.4718 4.42777 43.4083 4.61765C43.3448 4.80754 43.3363 5.01075 43.3839 5.20499C43.4314 5.39923 43.5331 5.577 43.6778 5.71878L45.9512 7.94512L45.4591 11.0444C45.4275 11.2418 45.4526 11.4438 45.5316 11.6283C45.6105 11.8127 45.7403 11.9724 45.9067 12.0898C46.0731 12.2073 46.2695 12.2778 46.4745 12.2938C46.6795 12.3098 46.885 12.2705 47.0685 12.1803L49.9505 10.7679L52.8325 12.1803C53.016 12.2703 53.2215 12.3094 53.4264 12.2934C53.6313 12.2774 53.8277 12.2068 53.994 12.0894C54.1603 11.972 54.29 11.8124 54.3691 11.628C54.4481 11.4437 54.4733 11.2417 54.4419 11.0444L53.9499 7.94512L56.2232 5.71878C56.3683 5.57727 56.4704 5.3995 56.518 5.20515C56.5655 5.0108 56.5568 4.80745 56.4928 4.6176ZM55.5986 5.11698L53.0127 7.64939L53.5725 11.1747C53.5795 11.2169 53.5742 11.2602 53.5574 11.2997C53.5406 11.3392 53.5128 11.3734 53.4772 11.3986C53.4416 11.4237 53.3996 11.4388 53.3557 11.4421C53.3118 11.4454 53.2678 11.4369 53.2287 11.4174L49.9505 9.81078L46.6722 11.4175C46.6331 11.4369 46.5891 11.4455 46.5452 11.4421C46.5013 11.4388 46.4593 11.4237 46.4237 11.3986C46.3881 11.3735 46.3603 11.3393 46.3435 11.2998C46.3267 11.2602 46.3214 11.217 46.3284 11.1748L46.8882 7.64939L44.3023 5.11695C44.2715 5.08665 44.2498 5.04867 44.2396 5.00717C44.2295 4.96568 44.2313 4.92228 44.2449 4.88172C44.2584 4.84116 44.2832 4.80502 44.3165 4.77724C44.3498 4.74946 44.3904 4.73112 44.4337 4.72423L48.0578 4.15205L49.7379 0.980378C49.758 0.942439 49.7885 0.910612 49.826 0.888391C49.8635 0.866169 49.9065 0.854413 49.9505 0.854413C49.9944 0.854413 50.0374 0.866169 50.0749 0.888391C50.1124 0.910612 50.1429 0.942439 50.163 0.980378L51.8431 4.15205L55.4672 4.72423C55.5106 4.73112 55.5511 4.74946 55.5844 4.77724C55.6177 4.80502 55.6425 4.84116 55.6561 4.88172C55.6696 4.92228 55.6714 4.96568 55.6613 5.00717C55.6512 5.04867 55.6295 5.08667 55.5986 5.11698Z" fill="#193D9B"/>
<path d="M70.944 4.6176C70.8809 4.42746 70.7649 4.25798 70.6088 4.12793C70.4527 3.99788 70.2626 3.91233 70.0596 3.88075L66.8734 3.37771L65.3963 0.589337C65.3022 0.411824 65.1596 0.262919 64.9842 0.158958C64.8087 0.0549976 64.6072 0 64.4016 0C64.1961 0 63.9946 0.0549976 63.8191 0.158958C63.6436 0.262919 63.501 0.411824 63.4069 0.589337L61.9299 3.37771L58.7438 3.88075C58.5409 3.91283 58.3511 3.99856 58.1951 4.12855C58.0391 4.25855 57.923 4.42777 57.8594 4.61765C57.7959 4.80754 57.7875 5.01075 57.835 5.20499C57.8826 5.39923 57.9843 5.577 58.129 5.71878L60.4023 7.94512L59.9103 11.0444C59.8787 11.2418 59.9038 11.4438 59.9827 11.6283C60.0617 11.8127 60.1915 11.9724 60.3579 12.0898C60.5242 12.2073 60.7207 12.2778 60.9257 12.2938C61.1307 12.3098 61.3362 12.2705 61.5197 12.1803L64.4016 10.7679L67.2837 12.1803C67.4672 12.2703 67.6727 12.3094 67.8775 12.2934C68.0824 12.2774 68.2788 12.2068 68.4451 12.0894C68.6114 11.972 68.7412 11.8124 68.8202 11.628C68.8993 11.4437 68.9245 11.2417 68.8931 11.0444L68.401 7.94512L70.6744 5.71878C70.8195 5.57727 70.9215 5.3995 70.9691 5.20515C71.0167 5.0108 71.008 4.80745 70.944 4.6176ZM70.0498 5.11698L67.4639 7.64939L68.0237 11.1747C68.0306 11.2169 68.0254 11.2602 68.0086 11.2997C67.9918 11.3392 67.964 11.3734 67.9284 11.3986C67.8928 11.4237 67.8507 11.4388 67.8069 11.4421C67.763 11.4454 67.719 11.4369 67.6798 11.4174L64.4016 9.81078L61.1234 11.4175C61.0842 11.4369 61.0403 11.4455 60.9964 11.4421C60.9525 11.4388 60.9104 11.4237 60.8748 11.3986C60.8392 11.3735 60.8115 11.3393 60.7947 11.2998C60.7778 11.2602 60.7726 11.217 60.7796 11.1748L61.3394 7.64939L58.7535 5.11695C58.7226 5.08665 58.7009 5.04867 58.6908 5.00717C58.6807 4.96568 58.6825 4.92228 58.696 4.88172C58.7096 4.84116 58.7344 4.80502 58.7677 4.77724C58.801 4.74946 58.8415 4.73112 58.8849 4.72423L62.509 4.15205L64.1891 0.980378C64.2092 0.942439 64.2397 0.910612 64.2772 0.888391C64.3147 0.866169 64.3577 0.854413 64.4016 0.854413C64.4456 0.854413 64.4886 0.866169 64.5261 0.888391C64.5636 0.910612 64.5941 0.942439 64.6142 0.980378L66.2943 4.15205L69.9184 4.72423C69.9617 4.73112 70.0023 4.74946 70.0356 4.77724C70.0689 4.80502 70.0937 4.84116 70.1072 4.88172C70.1208 4.92228 70.1226 4.96568 70.1125 5.00717C70.1023 5.04867 70.0807 5.08667 70.0498 5.11698Z" fill="#193D9B"/>
</svg>
