<svg width="25" height="24" viewBox="0 0 25 24" fill="none" xmlns="http://www.w3.org/2000/svg">
<path d="M14.8 9.02999V12.22H17.79C18.02 12.22 18.135 12.44 18.135 12.66L17.675 14.75C17.675 14.86 17.445 14.97 17.33 14.97H14.8V23H11.35V15.08H9.39499C9.16499 15.08 9.04999 14.97 9.04999 14.75V12.66C9.04999 12.44 9.16499 12.33 9.39499 12.33H11.35V8.69999C11.35 6.82999 12.845 5.39999 14.8 5.39999H17.905C18.135 5.39999 18.25 5.50999 18.25 5.72999V8.36999C18.25 8.58999 18.135 8.69999 17.905 8.69999H15.145C14.915 8.69999 14.8 8.80999 14.8 9.02999Z" stroke="#757575" stroke-width="1.5" stroke-miterlimit="10" stroke-linecap="round"/>
<path d="M15.95 23H9.05C3.3 23 1 20.8 1 15.3V8.7C1 3.2 3.3 1 9.05 1H15.95C21.7 1 24 3.2 24 8.7V15.3C24 20.8 21.7 23 15.95 23Z" stroke="#757575" stroke-width="2" stroke-linecap="round" stroke-linejoin="round"/>
</svg>
