<svg >
  <symbol id="dont-know" width="24" height="24" viewBox="0 0 24 24" xmlns="http://www.w3.org/2000/svg">
<path d="M12 23C18.0753 23 23 18.0753 23 12C23 5.9247 18.0753 1 12 1C5.9247 1 1 5.9247 1 12C1 18.0753 5.9247 23 12 23Z"  stroke-width="2" stroke-linecap="round" stroke-linejoin="round"/>
<path d="M7.59954 2.10001H8.69954C6.55458 8.52573 6.55458 15.4743 8.69954 21.9H7.59954M15.2995 2.10001C17.4445 8.52573 17.4445 15.4743 15.2995 21.9"  stroke-width="1.5" stroke-linecap="round" stroke-linejoin="round"/>
<path d="M2.10001 16.3995V15.2995C8.52573 17.4445 15.4743 17.4445 21.9 15.2995V16.3995M2.10001 8.69954C8.52573 6.55458 15.4743 6.55458 21.9 8.69954" stroke-width="1.5" stroke-linecap="round" stroke-linejoin="round"/>
</symbol>
  <symbol id="social-vk" width="24" height="24" viewBox="0 0 24 24"  xmlns="http://www.w3.org/2000/svg">
  <path d="M15.6835 0H8.31649C1.5937 0 0 1.5937 0 8.31649V15.6835C0 22.4063 1.5937 24 8.31649 24H15.6835C22.4063 24 24 22.4063 24 15.6835V8.31649C24 1.5937 22.3905 0 15.6835 0ZM19.3749 17.1205H17.6327C16.9727 17.1205 16.7695 16.597 15.5823 15.394C14.551 14.3943 14.0943 14.2616 13.8401 14.2616C13.4808 14.2616 13.3788 14.3628 13.3788 14.8555V16.4297C13.3788 16.852 13.2461 17.1055 12.1286 17.1055C10.2807 17.1055 8.23024 15.988 6.79254 13.9061C4.62436 10.8552 4.03112 8.56998 4.03112 8.0975C4.03112 7.84326 4.13237 7.60551 4.62061 7.60551H6.36655C6.80829 7.60551 6.97628 7.80876 7.14803 8.28124C8.01125 10.7734 9.44896 12.9566 10.0422 12.9566C10.2612 12.9566 10.3624 12.8553 10.3624 12.2966V9.7227C10.2957 8.53548 9.67095 8.43349 9.67095 8.012C9.67095 7.80876 9.83894 7.60551 10.1082 7.60551H12.8538C13.2251 7.60551 13.3616 7.80876 13.3616 8.24599V11.7184C13.3616 12.0934 13.5296 12.2261 13.6308 12.2261C13.8498 12.2261 14.0373 12.0934 14.443 11.6869C15.697 10.2807 16.5955 8.1125 16.5955 8.1125C16.7125 7.85825 16.9157 7.62051 17.3575 7.62051H19.1034C19.6269 7.62051 19.7439 7.88975 19.6269 8.26474C19.4079 9.28021 17.2712 12.2959 17.2712 12.2959C17.0875 12.6004 17.017 12.7331 17.2712 13.0728C17.4587 13.3271 18.0684 13.8543 18.4742 14.3268C19.2204 15.1743 19.7941 15.8853 19.9471 16.3772C20.1189 16.8655 19.8654 17.1197 19.3726 17.1197L19.3749 17.1205Z"/>
  </symbol> 
  <symbol id="social-instagram" width="24" height="24" viewBox="0 0 24 24"  xmlns="http://www.w3.org/2000/svg">
  <path d="M12 0C8.73784 0 8.33129 0.015752 7.05463 0.0697587C5.77272 0.132767 4.90561 0.331541 4.14052 0.628579C3.35142 0.937617 2.67933 1.34792 2.0155 2.0155C1.34717 2.67933 0.933117 3.35142 0.628579 4.14052C0.331541 4.90561 0.132767 5.77272 0.0697587 7.05463C0.0120015 8.33204 0 8.73784 0 12C0 15.2622 0.015752 15.6687 0.0697587 16.9454C0.132767 18.2235 0.331541 19.0944 0.628579 19.8595C0.937617 20.6486 1.34792 21.3207 2.0155 21.9845C2.67933 22.6528 3.35142 23.0669 4.14052 23.3714C4.90561 23.6647 5.77647 23.8672 7.05463 23.9302C8.33204 23.988 8.73784 24 12 24C15.2622 24 15.6687 23.9842 16.9454 23.9302C18.2235 23.8672 19.0944 23.664 19.8595 23.3714C20.6486 23.0624 21.3207 22.6521 21.9845 21.9845C22.6528 21.3207 23.0669 20.6523 23.3714 19.8595C23.6647 19.0944 23.8672 18.2235 23.9302 16.9454C23.988 15.668 24 15.2622 24 12C24 8.73784 23.9842 8.33129 23.9302 7.05463C23.8672 5.77647 23.664 4.90111 23.3714 4.14052C23.0624 3.35142 22.6521 2.67933 21.9845 2.0155C21.3207 1.34717 20.6523 0.933117 19.8595 0.628579C19.0944 0.331541 18.2235 0.132767 16.9454 0.0697587C15.668 0.0120015 15.2622 0 12 0ZM12 2.16027C15.2037 2.16027 15.5862 2.17602 16.8524 2.23003C18.0203 2.28479 18.6563 2.47981 19.0786 2.64483C19.642 2.86311 20.0358 3.12114 20.4618 3.54269C20.8796 3.96049 21.1376 4.35879 21.3559 4.92212C21.5209 5.34442 21.716 5.9805 21.7707 7.14839C21.8247 8.41455 21.8405 8.79785 21.8405 12.0007C21.8405 15.2037 21.8247 15.5869 21.7662 16.8531C21.7032 18.021 21.5082 18.6571 21.3439 19.0794C21.1166 19.6427 20.8631 20.0365 20.4446 20.4626C20.0223 20.8804 19.6202 21.1384 19.0614 21.3567C18.6443 21.5217 17.9993 21.7167 16.8269 21.7715C15.5539 21.8255 15.1789 21.8412 11.967 21.8412C8.7551 21.8412 8.3808 21.8255 7.10639 21.767C5.93849 21.704 5.29416 21.5089 4.87186 21.3447C4.30179 21.1174 3.91099 20.8639 3.49244 20.4453C3.07013 20.023 2.8016 19.621 2.59457 19.0621C2.42655 18.6451 2.23453 18 2.17227 16.8276C2.12952 15.5697 2.10926 15.1796 2.10926 11.9827C2.10926 8.78735 2.12952 8.39655 2.17227 7.12289C2.23453 5.95049 2.42655 5.30691 2.59457 4.88836C2.8016 4.31754 3.07088 3.92749 3.49244 3.50519C3.91024 3.08739 4.30179 2.81735 4.87186 2.60583C5.29416 2.44156 5.92274 2.24653 7.09514 2.18802C8.36805 2.14227 8.74309 2.12577 11.9505 2.12577L12 2.16027ZM12 5.84098C8.59383 5.84098 5.83948 8.59908 5.83948 12.0015C5.83948 15.4077 8.59758 18.162 12 18.162C15.4062 18.162 18.1605 15.4039 18.1605 12.0015C18.1605 8.59532 15.4024 5.84098 12 5.84098ZM12 16.0018C9.78872 16.0018 7.99975 14.2128 7.99975 12.0015C7.99975 9.79022 9.78872 8.00125 12 8.00125C14.2113 8.00125 16.0002 9.79022 16.0002 12.0015C16.0002 14.2128 14.2113 16.0018 12 16.0018ZM19.849 5.59495C19.849 6.3923 19.2002 7.03588 18.4066 7.03588C17.6092 7.03588 16.9656 6.39155 16.9656 5.59495C16.9656 4.8021 17.6137 4.15702 18.4066 4.15702C19.1994 4.15702 19.849 4.8021 19.849 5.59495Z" />
  </symbol>
  <symbol id="social-fb" width="25" height="24" viewBox="0 0 25 24"  xmlns="http://www.w3.org/2000/svg">
  <path d="M14.8 9.02999V12.22H17.79C18.02 12.22 18.135 12.44 18.135 12.66L17.675 14.75C17.675 14.86 17.445 14.97 17.33 14.97H14.8V23H11.35V15.08H9.39499C9.16499 15.08 9.04999 14.97 9.04999 14.75V12.66C9.04999 12.44 9.16499 12.33 9.39499 12.33H11.35V8.69999C11.35 6.82999 12.845 5.39999 14.8 5.39999H17.905C18.135 5.39999 18.25 5.50999 18.25 5.72999V8.36999C18.25 8.58999 18.135 8.69999 17.905 8.69999H15.145C14.915 8.69999 14.8 8.80999 14.8 9.02999Z" stroke-width="1.5" stroke-miterlimit="10" stroke-linecap="round"/>
  <path d="M15.95 23H9.05C3.3 23 1 20.8 1 15.3V8.7C1 3.2 3.3 1 9.05 1H15.95C21.7 1 24 3.2 24 8.7V15.3C24 20.8 21.7 23 15.95 23Z" stroke-width="2" stroke-linecap="round" stroke-linejoin="round"/>
  </symbol>
  <symbol id="good" width="25" height="22" viewBox="0 0 25 22"  xmlns="http://www.w3.org/2000/svg">
  <path d="M5.74376 8.80287H1.87081C1.57741 8.80149 1.29243 8.90086 1.06351 9.08438C0.834594 9.2679 0.675607 9.52444 0.613133 9.81111C-0.177885 13.3363 -0.20382 16.9901 0.537077 20.5262L0.614897 20.8991C0.676124 21.1887 0.834755 21.4485 1.06434 21.6352C1.29392 21.8219 1.58058 21.9243 1.87652 21.9253H5.74402C6.08565 21.9249 6.41317 21.789 6.65474 21.5474C6.8963 21.3059 7.03218 20.9783 7.03257 20.6367V10.0914C7.03218 9.74975 6.89627 9.42218 6.65464 9.18061C6.41302 8.93904 6.08543 8.80319 5.74376 8.80287ZM5.37214 20.2651H2.17846L2.16243 20.188C1.49027 16.9809 1.49306 13.669 2.17062 10.463H5.37214V20.2651Z"/>
  <path d="M24.8259 12.6733L23.6799 9.6172C23.5895 9.37832 23.4286 9.17253 23.2187 9.02703C23.0088 8.88153 22.7596 8.80319 22.5042 8.80237H16.3975V7.2701L16.8942 6.17024C17.1428 5.6198 17.2798 5.02555 17.2974 4.42185C17.315 3.81814 17.2127 3.21693 16.9966 2.65295C16.7805 2.08898 16.4548 1.57342 16.0383 1.13606C15.6217 0.698698 15.1227 0.348208 14.5699 0.104837C14.2677 -0.0267779 13.9259 -0.0347714 13.6178 0.0825693C13.3098 0.19991 13.0599 0.433249 12.9218 0.732586L8.75525 9.85372V11.154H9.98642L14.2549 1.80946C14.8575 2.1809 15.3041 2.75905 15.5114 3.43586C15.7187 4.11267 15.6725 4.8418 15.3813 5.48698L14.8111 6.74979L14.7374 7.09137V9.63246L15.5675 10.4625H22.2237L23.2457 13.1877V13.6687L19.7185 19.8679H13.2365L8.75525 17.2391V19.1639L12.491 21.3553C12.6837 21.4684 12.9031 21.528 13.1265 21.528H19.9539C20.1756 21.5278 20.3933 21.469 20.585 21.3575C20.7766 21.246 20.9354 21.0859 21.0452 20.8933L24.7417 14.3965C24.8492 14.2072 24.9058 13.9932 24.9059 13.7755V13.1142C24.906 12.9636 24.8789 12.8142 24.8259 12.6733Z" />
  </symbol>
  <symbol id="bad" width="25" height="22" viewBox="0 0 25 22"  xmlns="http://www.w3.org/2000/svg">
  <path d="M5.87793 1.21722H1.93191C1.64529 1.21805 1.36767 1.31736 1.14557 1.49851C0.923459 1.67967 0.770365 1.93166 0.711939 2.21225L0.634105 2.59156C-0.111345 6.19992 -0.0852264 9.92515 0.710746 13.5227C0.772886 13.7993 0.927013 14.0467 1.14794 14.2243C1.36887 14.402 1.64353 14.4995 1.92703 14.5009H5.87793C6.20809 14.5005 6.52463 14.3692 6.75809 14.1357C6.99155 13.9022 7.12288 13.5857 7.12327 13.2555V2.46257C7.1229 2.13239 6.99157 1.81585 6.75811 1.58239C6.52464 1.34892 6.2081 1.21759 5.87793 1.21722ZM5.46281 12.8404H2.26312C1.58564 9.57018 1.58483 6.19587 2.26073 2.92531L2.27048 2.87768H5.46281V12.8404Z" />
  <path d="M24.8364 7.15731L21.1392 0.65933C21.0293 0.466694 20.8705 0.306512 20.6788 0.195014C20.4871 0.0835157 20.2694 0.0246617 20.0476 0.0244141H13.219C12.9956 0.0244416 12.7763 0.0840334 12.5836 0.197049L8.84691 2.38906V4.31415L13.3289 1.68487H19.8123L23.3401 7.88511V8.36618L22.3179 11.0919H15.6605L14.8303 11.9221V14.4636L14.9039 14.8053L15.4742 16.0683C15.7654 16.7136 15.8117 17.4428 15.6044 18.1198C15.3971 18.7967 14.9504 19.3749 14.3477 19.7465L10.0555 10.3498H8.81116V11.5952L13.0145 20.8239C13.1156 21.0429 13.2774 21.2284 13.4806 21.3583C13.6839 21.4882 13.9201 21.5571 14.1613 21.5569C14.334 21.557 14.5047 21.521 14.6627 21.4513C15.2156 21.2079 15.7147 20.8574 16.1313 20.4199C16.5479 19.9825 16.8736 19.4668 17.0898 18.9028C17.3059 18.3387 17.4082 17.7374 17.3906 17.1336C17.373 16.5298 17.2359 15.9355 16.9873 15.3849L16.4908 14.2849V12.7523H22.5981C22.8535 12.7515 23.1027 12.6732 23.3127 12.5277C23.5226 12.3823 23.6835 12.1765 23.774 11.9377L24.9202 8.88107C24.9732 8.74006 25.0003 8.59065 25.0002 8.44001V7.77822C25.0002 7.56056 24.9438 7.34663 24.8364 7.15731Z" />
  </symbol>
  <symbol id="rating-star" width="14" height="14" viewBox="0 0 14 14"  xmlns="http://www.w3.org/2000/svg">
  <path d="M13.9445 4.6176C13.8814 4.42746 13.7654 4.25798 13.6093 4.12793C13.4532 3.99788 13.2631 3.91233 13.0601 3.88075L9.87385 3.37771L8.39681 0.589337C8.30273 0.411824 8.16013 0.262919 7.98466 0.158958C7.8092 0.0549976 7.60765 0 7.40212 0C7.1966 0 6.99505 0.0549976 6.81958 0.158958C6.64412 0.262919 6.50152 0.411824 6.40744 0.589337L4.9304 3.37771L1.74424 3.88075C1.54139 3.91283 1.35156 3.99856 1.19556 4.12855C1.03957 4.25854 0.923448 4.42777 0.859937 4.61765C0.796426 4.80754 0.787982 5.01075 0.83553 5.20499C0.883078 5.39923 0.984781 5.577 1.12948 5.71878L3.40282 7.94512L2.91076 11.0444C2.87919 11.2418 2.90427 11.4438 2.98324 11.6283C3.06221 11.8127 3.19201 11.9724 3.35837 12.0898C3.52473 12.2073 3.7212 12.2778 3.92618 12.2938C4.13115 12.3098 4.33669 12.2705 4.52019 12.1803L7.40212 10.7679L10.2841 12.1803C10.4677 12.2703 10.6731 12.3094 10.878 12.2934C11.0829 12.2774 11.2793 12.2068 11.4456 12.0894C11.6119 11.972 11.7417 11.8124 11.8207 11.628C11.8998 11.4437 11.925 11.2417 11.8936 11.0444L11.4015 7.94512L13.6748 5.71878C13.82 5.57727 13.922 5.3995 13.9696 5.20515C14.0172 5.0108 14.0085 4.80745 13.9445 4.6176ZM13.0503 5.11698L10.4644 7.64939L11.0242 11.1747C11.0311 11.2169 11.0259 11.2602 11.0091 11.2997C10.9923 11.3392 10.9645 11.3734 10.9289 11.3986C10.8933 11.4237 10.8512 11.4388 10.8073 11.4421C10.7635 11.4454 10.7195 11.4369 10.6803 11.4174L7.40212 9.81078L4.1239 11.4175C4.08472 11.4369 4.04075 11.4455 3.99687 11.4421C3.953 11.4388 3.91093 11.4237 3.87532 11.3986C3.83972 11.3735 3.81197 11.3393 3.79515 11.2998C3.77834 11.2603 3.77311 11.217 3.78005 11.1748L4.33986 7.64939L1.754 5.11695C1.72312 5.08665 1.70142 5.04867 1.69129 5.00717C1.68115 4.96568 1.68296 4.92228 1.69652 4.88172C1.71009 4.84116 1.73488 4.80502 1.76819 4.77724C1.80149 4.74946 1.84202 4.73112 1.88534 4.72423L5.50951 4.15205L7.18961 0.980378C7.2097 0.942439 7.24016 0.910612 7.27765 0.888391C7.31514 0.866169 7.35821 0.854413 7.40212 0.854413C7.44604 0.854413 7.48911 0.866169 7.5266 0.888391C7.56409 0.910612 7.59455 0.942439 7.61464 0.980378L9.29474 4.15205L12.9189 4.72423C12.9622 4.73112 13.0028 4.74946 13.0361 4.77724C13.0694 4.80502 13.0942 4.84116 13.1077 4.88172C13.1213 4.92228 13.1231 4.96568 13.113 5.00717C13.1028 5.04867 13.0812 5.08667 13.0503 5.11698Z" />
  </symbol>

</svg> 